<svg width="20" height="25" viewBox="0 0 20 25" fill="none" xmlns="http://www.w3.org/2000/svg">
<g id="Group 9">
<path id="Vector" d="M14.5274 0.551025H14.554C14.5915 0.728235 14.6068 0.90748 14.5999 1.08876C14.5974 1.2642 14.5857 1.43902 14.5646 1.61322C14.5343 1.81203 14.4952 2.00898 14.4472 2.20407L14.2651 2.76836L14.2404 2.82704L14.0255 3.29335C13.8149 3.69681 13.5593 4.07061 13.2589 4.41476L13.1306 4.56081L12.6524 4.99445L12.5929 5.0388C12.2482 5.29691 11.8794 5.51059 11.4863 5.67984C11.2916 5.75738 11.0943 5.82288 10.8944 5.87634C10.728 5.91564 10.5598 5.94441 10.3899 5.96265C10.2182 5.97274 10.0469 5.9676 9.87606 5.94724C9.86615 5.946 9.86013 5.94052 9.858 5.93078L9.81472 5.73905C9.82516 5.67213 9.82508 5.60566 9.81445 5.53963C9.81729 5.1737 9.86562 4.81645 9.95944 4.46787C10.0145 4.26428 10.0824 4.06512 10.1631 3.87039L10.391 3.37912L10.4419 3.28618L10.7295 2.82147L10.9486 2.52936L11.2096 2.22L11.5384 1.89975L11.7253 1.73936L12.0695 1.48151C12.2405 1.36254 12.4175 1.2534 12.6006 1.15409L12.74 1.07655L13.1328 0.896239C13.3282 0.816928 13.5274 0.748328 13.7302 0.690439C13.9926 0.625291 14.2583 0.57882 14.5274 0.551025Z" fill="#EEEAE2"/>
<path id="Vector_2" d="M14.2735 6.22607L14.8444 6.25927L15.3688 6.33229L15.9464 6.47171L16.4765 6.65201L16.5638 6.69078L17.0418 6.91863C17.6878 7.28101 18.2385 7.75422 18.6938 8.33825L18.7291 8.39136L18.8388 8.54113C18.8402 8.54307 18.8412 8.54526 18.8418 8.54758C18.8423 8.5499 18.8424 8.55231 18.8421 8.55465C18.8417 8.557 18.8408 8.55925 18.8396 8.56125C18.8384 8.56326 18.8367 8.565 18.8348 8.56636L18.7108 8.65399L18.4227 8.85713L18.1757 9.06001C18.0293 9.17986 17.8944 9.30662 17.771 9.44028L17.5862 9.63838L17.3116 9.98333C17.2141 10.106 17.1241 10.2389 17.0418 10.3819L16.9345 10.5689C16.832 10.742 16.7461 10.9231 16.6767 11.1122C16.596 11.2998 16.5311 11.4962 16.482 11.7014C16.4735 11.7156 16.468 11.7342 16.4653 11.7572C16.4233 11.9167 16.3924 12.0782 16.3724 12.2418C16.3396 12.4307 16.3219 12.621 16.3192 12.8127C16.3093 12.9919 16.3093 13.1712 16.3192 13.3505C16.3325 13.5509 16.3562 13.75 16.3902 13.948C16.4027 14.0662 16.4302 14.1846 16.4727 14.303C16.4752 14.3685 16.4881 14.4295 16.5112 14.486C16.569 14.6848 16.6355 14.875 16.7109 15.0566C16.888 15.4633 17.1152 15.8395 17.3926 16.1852L17.5811 16.4067L17.8772 16.7097C17.9663 16.8008 18.062 16.8855 18.1645 16.9635C18.5099 17.2597 18.8903 17.5023 19.3056 17.6911L19.4384 17.753C19.4561 17.7599 19.4627 17.7706 19.4583 17.7852C19.3485 18.1405 19.2091 18.5185 19.0401 18.9193L18.7944 19.4525L18.6948 19.6628L18.5079 20.0158C18.2926 20.4082 18.0586 20.7884 17.8058 21.1563L17.5918 21.4696L17.3937 21.7408L17.0607 22.18L16.9964 22.2596C16.6848 22.6606 16.3323 23.0213 15.9387 23.3418L15.9066 23.3673C15.737 23.494 15.5577 23.6054 15.3688 23.7013C15.1978 23.7863 15.0205 23.8545 14.8367 23.9061C14.2689 24.03 13.7071 24.004 13.1513 23.828C12.9744 23.7733 12.7997 23.7089 12.6271 23.6349L12.0429 23.3912L11.9765 23.3627C11.8318 23.3025 11.6836 23.2532 11.5317 23.2146C11.2628 23.136 10.9884 23.0902 10.7085 23.0773C10.6026 23.0638 10.4964 23.0594 10.3898 23.064C10.1871 23.0582 9.98538 23.0689 9.78462 23.0961C9.62636 23.1142 9.46959 23.1411 9.31434 23.1769C8.91318 23.2825 8.52371 23.4212 8.14592 23.593L7.56171 23.8208C7.38574 23.8812 7.2065 23.9292 7.02398 23.9647C6.82455 23.9916 6.61238 24.0245 6.42118 24.0181C6.04516 24.0054 5.68844 23.9123 5.35102 23.739C4.49383 23.2738 3.87722 22.4872 3.30337 21.7222L3.13422 21.4946L2.8615 21.1101L2.59542 20.7357L2.51735 20.6L2.2109 20.0877L1.98625 19.6705L1.90552 19.5102L1.60784 18.8872L1.48118 18.6113L1.38213 18.3494L1.18084 17.8117L0.990442 17.2541L0.89511 16.9535L0.817835 16.6499L0.697276 16.1642L0.570078 15.5413L0.490414 15.0434C0.418715 14.5641 0.372776 14.0823 0.352594 13.598C0.334005 13.1481 0.366137 12.6964 0.40411 12.2485L0.478198 11.6985L0.603272 11.1066L0.736046 10.622C0.862448 10.2352 1.01549 9.85931 1.19518 9.49445C1.40178 9.10374 1.64334 8.73604 1.91986 8.39136L2.0306 8.25859L2.47247 7.79361L2.60259 7.68208C2.94515 7.38431 3.31692 7.12912 3.71789 6.9165C4.06506 6.73894 4.42576 6.5951 4.80001 6.48498L5.35102 6.36549L5.91531 6.2991L6.40658 6.29459C6.61831 6.30857 6.82853 6.33442 7.03725 6.37213L7.53569 6.49959C7.90976 6.62493 8.281 6.76204 8.6494 6.91092L9.24795 7.1377C9.60883 7.27181 9.996 7.35545 10.3765 7.27632C10.5302 7.24428 10.7098 7.18887 10.9153 7.11009L11.5383 6.87667C11.8922 6.73416 12.2507 6.6043 12.6138 6.48711L13.1648 6.34557L13.7224 6.25263L14.2735 6.22607Z" fill="#EEEAE2"/>
</g>
</svg>
