<svg width="28" height="28" viewBox="0 0 28 28" fill="none" xmlns="http://www.w3.org/2000/svg">
<g id="favorite">
<mask id="mask0_985_2241" style="mask-type:alpha" maskUnits="userSpaceOnUse" x="0" y="0" width="28" height="28">
<rect id="Bounding box" width="28" height="28" fill="#EAE9DA"/>
</mask>
<g mask="url(#mask0_985_2241)">
<path id="favorite_2" d="M14.0001 23.7123L12.7167 22.5456C10.7723 20.7956 9.16814 19.2887 7.90425 18.0248C6.64036 16.7609 5.63897 15.6378 4.90008 14.6555C4.16119 13.6739 3.64591 12.7795 3.35425 11.9721C3.06258 11.1656 2.91675 10.3442 2.91675 9.50814C2.91675 7.85536 3.47597 6.46975 4.59441 5.3513C5.71208 4.23364 7.0973 3.6748 8.75008 3.6748C9.76119 3.6748 10.7237 3.9128 11.6376 4.3888C12.5515 4.86558 13.339 5.55119 14.0001 6.44564C14.6612 5.55119 15.4487 4.86558 16.3626 4.3888C17.2765 3.9128 18.239 3.6748 19.2501 3.6748C20.9029 3.6748 22.2881 4.23364 23.4057 5.3513C24.5242 6.46975 25.0834 7.85536 25.0834 9.50814C25.0834 10.3442 24.9376 11.1656 24.6459 11.9721C24.3542 12.7795 23.839 13.6739 23.1001 14.6555C22.3612 15.6378 21.3598 16.7609 20.0959 18.0248C18.832 19.2887 17.2279 20.7956 15.2834 22.5456L14.0001 23.7123ZM14.0001 21.3498C15.8667 19.6776 17.4029 18.2387 18.6084 17.0331C19.814 15.8276 20.7667 14.7822 21.4667 13.8971C22.1667 13.0128 22.6529 12.2304 22.9251 11.5498C23.1973 10.8692 23.3334 10.1887 23.3334 9.50814C23.3334 8.34147 22.9445 7.36925 22.1667 6.59147C21.389 5.81369 20.4167 5.4248 19.2501 5.4248C18.3362 5.4248 17.4853 5.6873 16.6974 6.2123C15.9103 6.7373 15.2931 7.46647 14.8459 8.3998H13.1542C12.6876 7.44703 12.0654 6.7128 11.2876 6.19714C10.5098 5.68225 9.66397 5.4248 8.75008 5.4248C7.58341 5.4248 6.61119 5.81369 5.83341 6.59147C5.05564 7.36925 4.66675 8.34147 4.66675 9.50814C4.66675 10.1887 4.80286 10.8692 5.07508 11.5498C5.3473 12.2304 5.83341 13.0128 6.53341 13.8971C7.23341 14.7822 8.18619 15.8225 9.39175 17.018C10.5973 18.2142 12.1334 19.6581 14.0001 21.3498Z" fill="#A29C90"/>
</g>
</g>
</svg>
