<svg width="14" height="20" viewBox="0 0 14 20" fill="none" xmlns="http://www.w3.org/2000/svg">
<path id="location_on" d="M7 18.5621C8.94444 16.6623 10.4415 14.7625 11.4912 12.8627C12.5415 10.963 13.0667 9.35948 13.0667 8.05229C13.0667 5.99564 12.4796 4.31373 11.3055 3.00654C10.1307 1.69935 8.69556 1.04575 7 1.04575C5.30444 1.04575 3.8696 1.69935 2.69547 3.00654C1.52071 4.31373 0.933333 5.99564 0.933333 8.05229C0.933333 9.35948 1.45849 10.963 2.5088 12.8627C3.55849 14.7625 5.05556 16.6623 7 18.5621ZM7 20C4.63556 17.6471 2.87778 15.4684 1.72667 13.4641C0.575555 11.4597 0 9.65577 0 8.05229C0 5.59477 0.704044 3.63852 2.11213 2.18353C3.5196 0.727843 5.14889 0 7 0C8.85111 0 10.4807 0.727843 11.8888 2.18353C13.2963 3.63852 14 5.59477 14 8.05229C14 9.65577 13.4244 11.4597 12.2733 13.4641C11.1222 15.4684 9.36444 17.6471 7 20Z" fill="#A29C90"/>
</svg>
