<svg width="24" height="24" viewBox="0 0 24 24" fill="none" xmlns="http://www.w3.org/2000/svg">
<g id="settings_accessibility">
<mask id="mask0_1209_2395" style="mask-type:alpha" maskUnits="userSpaceOnUse" x="0" y="0" width="24" height="24">
<rect id="Bounding box" width="24" height="24" fill="#D9D9D9"/>
</mask>
<g mask="url(#mask0_1209_2395)">
<path id="settings_accessibility_2" d="M12 3.80772C11.5269 3.80772 11.1266 3.64394 10.799 3.31637C10.4715 2.9888 10.3077 2.58848 10.3077 2.1154C10.3077 1.64233 10.4715 1.24201 10.799 0.914447C11.1266 0.58688 11.5269 0.423096 12 0.423096C12.4731 0.423096 12.8734 0.58688 13.201 0.914447C13.5285 1.24201 13.6923 1.64233 13.6923 2.1154C13.6923 2.58848 13.5285 2.9888 13.201 3.31637C12.8734 3.64394 12.4731 3.80772 12 3.80772ZM9.80768 18.8846V6.4231C8.76923 6.33976 7.75898 6.22438 6.77692 6.07695C5.79487 5.92951 4.86923 5.75003 4 5.5385L4.23078 4.53847C5.49231 4.85002 6.76346 5.07535 8.04423 5.21445C9.32499 5.35355 10.6436 5.4231 12 5.4231C13.3564 5.4231 14.675 5.35355 15.9558 5.21445C17.2365 5.07535 18.5077 4.85002 19.7692 4.53847L20 5.5385C19.1308 5.75003 18.2051 5.92951 17.2231 6.07695C16.241 6.22438 15.2308 6.33976 14.1923 6.4231V18.8846H13.1923V12.8462H10.8077V18.8846H9.80768ZM8 23.7692C7.79358 23.7692 7.61378 23.6926 7.46058 23.5394C7.30738 23.3862 7.23077 23.2064 7.23077 23C7.23077 22.7936 7.30738 22.6138 7.46058 22.4606C7.61378 22.3074 7.79358 22.2308 8 22.2308C8.20642 22.2308 8.38622 22.3074 8.53942 22.4606C8.69263 22.6138 8.76923 22.7936 8.76923 23C8.76923 23.2064 8.69263 23.3862 8.53942 23.5394C8.38622 23.6926 8.20642 23.7692 8 23.7692ZM12 23.7692C11.7936 23.7692 11.6138 23.6926 11.4606 23.5394C11.3074 23.3862 11.2308 23.2064 11.2308 23C11.2308 22.7936 11.3074 22.6138 11.4606 22.4606C11.6138 22.3074 11.7936 22.2308 12 22.2308C12.2064 22.2308 12.3862 22.3074 12.5394 22.4606C12.6926 22.6138 12.7692 22.7936 12.7692 23C12.7692 23.2064 12.6926 23.3862 12.5394 23.5394C12.3862 23.6926 12.2064 23.7692 12 23.7692ZM16 23.7692C15.7936 23.7692 15.6138 23.6926 15.4606 23.5394C15.3074 23.3862 15.2308 23.2064 15.2308 23C15.2308 22.7936 15.3074 22.6138 15.4606 22.4606C15.6138 22.3074 15.7936 22.2308 16 22.2308C16.2064 22.2308 16.3862 22.3074 16.5394 22.4606C16.6926 22.6138 16.7692 22.7936 16.7692 23C16.7692 23.2064 16.6926 23.3862 16.5394 23.5394C16.3862 23.6926 16.2064 23.7692 16 23.7692Z" fill="#EEEAE2"/>
</g>
</g>
</svg>
