<svg width="17" height="18" viewBox="0 0 17 18" fill="none" xmlns="http://www.w3.org/2000/svg">
<path id="Vector" d="M13.3481 10.5855H8.83348C8.82978 10.5855 8.82622 10.584 8.8236 10.5813C8.82098 10.5786 8.8195 10.5749 8.8195 10.571V7.28749C8.8195 7.27801 8.82407 7.27328 8.8332 7.27328L16.6569 7.28778C16.6649 7.28776 16.6726 7.29062 16.6787 7.29586C16.6848 7.3011 16.689 7.3084 16.6905 7.31648C16.7524 7.64395 16.7922 7.97557 16.8099 8.31135C16.9371 10.7041 16.2453 13.19 14.6881 14.993C13.3193 16.5773 11.4667 17.293 9.45706 17.4379C6.42001 17.6569 3.54431 16.2068 1.85899 13.5846C-0.622156 9.72434 0.314041 4.51833 3.90895 1.795C6.90964 -0.478026 10.9654 -0.383787 13.9096 1.93621C14.0054 2.0116 14.1779 2.16074 14.4272 2.38362C14.4343 2.38981 14.4345 2.39629 14.428 2.40305L12.0931 4.82396C12.0877 4.82956 12.0821 4.82985 12.0763 4.82483C10.3737 3.32369 7.9507 3.1645 6.07719 4.41482C3.10334 6.39962 3.0063 10.9576 5.90745 13.0615C7.01068 13.8614 8.2471 14.1622 9.61672 13.9639C11.4363 13.7 12.8204 12.4039 13.3551 10.5957C13.3571 10.5889 13.3548 10.5855 13.3481 10.5855Z" fill="#EEEAE2"/>
</svg>
