<?xml version="1.0" standalone="no"?>
<!DOCTYPE svg PUBLIC "-//W3C//DTD SVG 20010904//EN"
 "http://www.w3.org/TR/2001/REC-SVG-20010904/DTD/svg10.dtd">
<svg version="1.0" xmlns="http://www.w3.org/2000/svg"
 width="20.000000pt" height="20.000000pt" viewBox="0 0 20.000000 20.000000"
 preserveAspectRatio="xMidYMid meet">

<g transform="translate(0.000000,20.000000) scale(0.100000,-0.100000)"
fill="#000000" stroke="none">
<path d="M20 180 c-11 -11 -20 -26 -20 -33 0 -17 53 -97 80 -122 19 -18 21
-18 40 0 27 25 80 105 80 122 0 15 -35 53 -50 53 -5 0 -19 -9 -30 -20 l-20
-20 -20 20 c-11 11 -24 20 -30 20 -5 0 -19 -9 -30 -20z"/>
</g>
</svg>
