<svg width="26" height="28" viewBox="0 0 26 28" fill="none" xmlns="http://www.w3.org/2000/svg">
<g id="default">
<path id="Vector" d="M13.6782 21.6151C13.4309 21.8544 13.0384 21.8544 12.7911 21.6151C11.069 20.006 9.65132 18.6249 8.53805 17.4717C7.42478 16.3185 6.54199 15.3084 5.88968 14.4412C5.23737 13.5741 4.78511 12.7964 4.53288 12.108C4.28065 11.4197 4.15454 10.7358 4.15454 10.0565C4.15454 8.80493 4.56767 7.75455 5.39393 6.90531C6.22018 6.05606 7.24213 5.63144 8.45977 5.63144C9.3991 5.63144 10.2732 5.89962 11.0821 6.43599C12.3125 7.2519 14.1848 7.24128 15.4134 6.42258C16.2048 5.89515 17.0702 5.63144 18.0096 5.63144C19.2272 5.63144 20.2492 6.05606 21.0754 6.90531C21.9017 7.75455 22.3148 8.80493 22.3148 10.0565C22.3148 10.7358 22.1887 11.4197 21.9365 12.108C21.6842 12.7964 21.232 13.5741 20.5797 14.4412C19.9273 15.3084 19.0446 16.3185 17.9313 17.4717C16.818 18.6249 15.4003 20.006 13.6782 21.6151Z" fill="#E6E5D5"/>
</g>
</svg>
