<svg width="24" height="25" viewBox="0 0 24 25" fill="none" xmlns="http://www.w3.org/2000/svg">
<path id="Vector" d="M8.99701 14.9849C9.00701 16.0889 8.11701 16.9929 7.01101 16.9999C5.90601 17.0089 5.00601 16.1199 5.00001 15.0159C4.99001 13.9109 5.87901 13.0109 6.98201 12.9999C8.08801 12.9929 8.99101 13.8829 8.99701 14.9849ZM8.01901 10.9989C6.91501 11.0069 6.01101 10.1189 6.00401 9.01191C5.99501 7.90891 6.88101 7.00791 7.98801 7.00091C9.09001 6.99091 9.99601 7.87791 10 8.98291C10.012 10.0899 9.12001 10.9889 8.01901 10.9989ZM16 6.98491C16.004 8.08691 15.119 8.99291 14.015 8.99991C12.909 9.00991 12.007 8.12091 12 7.01691C11.989 5.91091 12.878 5.01091 13.985 5.00191C15.086 4.99591 15.99 5.88291 16 6.98491ZM4.00001 22.8319C8.58701 23.2119 6.94401 18.3399 11.188 18.2949L13.026 19.8289C13.484 25.3659 6.71101 26.6009 4.00001 22.8319ZM18.065 15.7169C19.492 13.4779 23.911 5.96891 23.911 5.96891C24.264 5.34591 23.482 4.69591 22.936 5.15591C22.936 5.15591 16.364 10.8699 14.425 12.6809C12.893 14.1129 12.886 14.7669 12.39 17.1279L14.07 18.5279C16.297 17.6129 16.938 17.4879 18.065 15.7169ZM5.44301 20.5229C3.35901 18.7029 2.02301 16.0439 2.00001 13.0759C1.95601 7.56591 6.40601 3.04591 11.92 3.00091C15.758 2.97991 18.399 4.90591 18.416 6.44791L20.079 4.99191C19.069 2.76891 15.897 0.946907 11.903 0.999907C5.28001 1.05491 -0.0519891 6.46591 1.09229e-05 13.0919C0.0230109 16.0039 1.08301 18.6619 2.82301 20.7269C3.78101 21.2189 4.94601 21.0559 5.44301 20.5229ZM18.24 18.6169C19.299 20.5869 16.889 21.9869 14.695 22.6089C14.391 23.5209 13.892 24.3299 13.321 24.9199C18.576 24.3289 22.382 20.6159 19.587 17.0309C19.128 17.7159 18.69 18.2279 18.24 18.6169Z" fill="#E6E5D5"/>
</svg>
