<svg width="21" height="19" viewBox="0 0 21 19" fill="none" xmlns="http://www.w3.org/2000/svg">
<path id="person" d="M10.5003 8.56736C9.2972 8.56736 8.26725 8.16418 7.41048 7.3578C6.55371 6.55143 6.12533 5.58207 6.12533 4.44971C6.12533 3.31734 6.55371 2.34796 7.41048 1.54159C8.26725 0.735218 9.2972 0.332031 10.5003 0.332031C11.7035 0.332031 12.7334 0.735218 13.5902 1.54159C14.4469 2.34796 14.8753 3.31734 14.8753 4.44971C14.8753 5.58207 14.4469 6.55143 13.5902 7.3578C12.7334 8.16418 11.7035 8.56736 10.5003 8.56736ZM0.291992 18.492V16.2325C0.291992 15.6659 0.467272 15.1358 0.817831 14.6422C1.16839 14.1486 1.64001 13.7654 2.23271 13.4927C3.60876 12.8715 4.98576 12.4056 6.36369 12.0951C7.74164 11.7845 9.12052 11.6292 10.5003 11.6292C11.8801 11.6292 13.259 11.7845 14.637 12.0951C16.0149 12.4056 17.3919 12.8715 18.7679 13.4927C19.3606 13.7654 19.8323 14.1486 20.1828 14.6422C20.5334 15.1358 20.7087 15.6659 20.7087 16.2325V18.492H0.291992ZM1.75033 17.1194H19.2503V16.2325C19.2503 15.9281 19.1461 15.6421 18.9376 15.3747C18.7292 15.1072 18.4408 14.8811 18.0724 14.6963C16.8721 14.149 15.6345 13.7298 14.3597 13.4386C13.0848 13.1473 11.7984 13.0017 10.5003 13.0017C9.20229 13.0017 7.91584 13.1473 6.64099 13.4386C5.36612 13.7298 4.12853 14.149 2.92822 14.6963C2.5599 14.8811 2.2715 15.1072 2.06303 15.3747C1.85456 15.6421 1.75033 15.9281 1.75033 16.2325V17.1194ZM10.5003 7.19481C11.3024 7.19481 11.989 6.92602 12.5602 6.38844C13.1314 5.85086 13.417 5.20462 13.417 4.44971C13.417 3.69481 13.1314 3.04857 12.5602 2.51099C11.989 1.97341 11.3024 1.70462 10.5003 1.70462C9.69824 1.70462 9.01161 1.97341 8.44043 2.51099C7.86925 3.04857 7.58366 3.69481 7.58366 4.44971C7.58366 5.20462 7.86925 5.85086 8.44043 6.38844C9.01161 6.92602 9.69824 7.19481 10.5003 7.19481Z" fill="#A29C90"/>
</svg>
