<svg width="25" height="23" viewBox="0 0 25 23" fill="none" xmlns="http://www.w3.org/2000/svg">
<path id="search" d="M23.415 22.7206L14.2835 14.1264C13.5544 14.7106 12.7158 15.1628 11.7679 15.4831C10.82 15.8033 9.86739 15.9635 8.91011 15.9635C6.57435 15.9635 4.59752 15.2025 2.97962 13.6806C1.3617 12.1587 0.552734 10.2992 0.552734 8.10199C0.552734 5.90482 1.36125 4.04385 2.97827 2.51908C4.59529 0.994316 6.57106 0.231934 8.90556 0.231934C11.2401 0.231934 13.2174 0.993298 14.8374 2.51603C16.4575 4.03876 17.2675 5.89932 17.2675 8.0977C17.2675 9.05144 17.088 9.97439 16.729 10.8665C16.3701 11.7587 15.8989 12.5215 15.3156 13.155L24.447 21.7493L23.415 22.7206ZM8.91011 14.5909C10.8452 14.5909 12.4788 13.964 13.811 12.7103C15.1431 11.4565 15.8092 9.91896 15.8092 8.0977C15.8092 6.27645 15.1431 4.73893 13.811 3.48515C12.4788 2.23137 10.8452 1.60448 8.91011 1.60448C6.97503 1.60448 5.34141 2.23137 4.00928 3.48515C2.67716 4.73893 2.0111 6.27645 2.0111 8.0977C2.0111 9.91896 2.67716 11.4565 4.00928 12.7103C5.34141 13.964 6.97503 14.5909 8.91011 14.5909Z" fill="#A29C90"/>
</svg>
