<svg width="19" height="20" viewBox="0 0 19 20" fill="none" xmlns="http://www.w3.org/2000/svg">
<path id="Vector" d="M18.1557 18.3332L16.4991 16.6665M9.45862 17.4998C10.492 17.4998 11.5152 17.2951 12.4699 16.8972C13.4246 16.4994 14.292 15.9162 15.0227 15.1811C15.7534 14.446 16.333 13.5732 16.7284 12.6127C17.1239 11.6523 17.3274 10.6228 17.3274 9.58317C17.3274 8.54354 17.1239 7.51409 16.7284 6.55359C16.333 5.5931 15.7534 4.72037 15.0227 3.98524C14.292 3.25011 13.4246 2.66697 12.4699 2.26912C11.5152 1.87127 10.492 1.6665 9.45862 1.6665C7.37169 1.6665 5.37024 2.50058 3.89456 3.98524C2.41887 5.4699 1.58984 7.48354 1.58984 9.58317C1.58984 11.6828 2.41887 13.6964 3.89456 15.1811C5.37024 16.6658 7.37169 17.4998 9.45862 17.4998V17.4998Z" stroke="#EEEAE2" stroke-width="1.5" stroke-linecap="round" stroke-linejoin="round"/>
</svg>
