<svg width="28" height="28" viewBox="0 0 28 28" fill="none" xmlns="http://www.w3.org/2000/svg">
<g id="ios_share">
<mask id="mask0_985_2074" style="mask-type:alpha" maskUnits="userSpaceOnUse" x="0" y="0" width="28" height="28">
<rect id="Bounding box" width="28" height="28" fill="#D9D9D9"/>
</mask>
<g mask="url(#mask0_985_2074)">
<path id="ios_share_2" d="M14 19.3751C13.7517 19.3751 13.5438 19.2913 13.3763 19.1238C13.2088 18.9563 13.125 18.7484 13.125 18.5001V6.50587L11.5702 8.06071C11.4086 8.22224 11.2104 8.303 10.9756 8.303C10.7408 8.303 10.5329 8.21252 10.3519 8.03155C10.1829 7.85056 10.0984 7.64266 10.0984 7.40785C10.0984 7.17301 10.1829 6.97109 10.3519 6.80208L13.2618 3.89215C13.3591 3.79493 13.4712 3.7209 13.5984 3.67005C13.7255 3.61918 13.8594 3.59375 14 3.59375C14.1406 3.59375 14.2744 3.61918 14.4016 3.67005C14.5287 3.7209 14.6409 3.79493 14.7381 3.89215L17.6593 6.81331C17.8328 6.98682 17.9195 7.19397 17.9195 7.43477C17.9195 7.67557 17.829 7.88047 17.648 8.04948C17.4671 8.21849 17.2592 8.303 17.0243 8.303C16.7895 8.303 16.5876 8.21849 16.4186 8.04948L14.8749 6.50587V18.5001C14.8749 18.7484 14.7912 18.9563 14.6237 19.1238C14.4562 19.2913 14.2483 19.3751 14 19.3751ZM7.35898 27.2501C6.76966 27.2501 6.27083 27.0459 5.8625 26.6376C5.45417 26.2292 5.25 25.7304 5.25 25.1411V13.0258C5.25 12.4365 5.45417 11.9376 5.8625 11.5293C6.27083 11.121 6.76966 10.9168 7.35898 10.9168H9.46794C9.71622 10.9168 9.92412 11.0006 10.0916 11.1681C10.2592 11.3356 10.3429 11.5435 10.3429 11.7918C10.3429 12.0401 10.2592 12.248 10.0916 12.4155C9.92412 12.583 9.71622 12.6668 9.46794 12.6668H7.35898C7.26923 12.6668 7.18695 12.7042 7.11215 12.7789C7.03736 12.8537 6.99997 12.936 6.99997 13.0258V25.1411C6.99997 25.2308 7.03736 25.3131 7.11215 25.3879C7.18695 25.4627 7.26923 25.5001 7.35898 25.5001H20.641C20.7307 25.5001 20.813 25.4627 20.8878 25.3879C20.9626 25.3131 21 25.2308 21 25.1411V13.0258C21 12.936 20.9626 12.8537 20.8878 12.7789C20.813 12.7042 20.7307 12.6668 20.641 12.6668H18.532C18.2837 12.6668 18.0758 12.583 17.9083 12.4155C17.7408 12.248 17.657 12.0401 17.657 11.7918C17.657 11.5435 17.7408 11.3356 17.9083 11.1681C18.0758 11.0006 18.2837 10.9168 18.532 10.9168H20.641C21.2303 10.9168 21.7291 11.121 22.1374 11.5293C22.5458 11.9376 22.7499 12.4365 22.7499 13.0258V25.1411C22.7499 25.7304 22.5458 26.2292 22.1374 26.6376C21.7291 27.0459 21.2303 27.2501 20.641 27.2501H7.35898Z" fill="#A29C90"/>
</g>
</g>
</svg>
